<svg width="358" height="63" viewBox="0 0 358 63" fill="none" xmlns="http://www.w3.org/2000/svg">
<path d="M67.1 51.8C66.1667 51.8 65.1833 51.4333 64.15 50.7C63.1167 49.9667 62.3833 49.1333 61.95 48.2C61.55 47.3333 61.1333 44.5833 60.7 39.95C60.3 35.3167 60.1 31.8667 60.1 29.6V26.95C60.0667 26.1833 60.05 25.3333 60.05 24.4C60.05 22.6667 60.15 20.95 60.35 19.25C60.4833 18.4167 60.65 17.7 60.85 17.1C61.0833 16.5 61.4 15.9167 61.8 15.35C62.5333 14.2167 63.6333 13.4667 65.1 13.1C65.8667 12.9 66.7167 12.8 67.65 12.8C68.2833 12.8 68.9167 12.9833 69.55 13.35C70.2167 13.7167 70.55 14.15 70.55 14.65C70.55 15.0167 70.2833 15.2 69.75 15.2C69.55 15.2 69.1667 15.0833 68.6 14.85C68.1 14.6167 67.65 14.5 67.25 14.5C66.3167 14.5 65.4667 14.7 64.7 15.1C63.9667 15.4667 63.3833 15.9667 62.95 16.6C62.5833 17.1333 62.2667 17.8667 62 18.8C61.7333 19.7333 61.5667 20.6667 61.5 21.6C61.4 22.4333 61.35 23.4333 61.35 24.6L61.4 27.4C61.4333 28.2 61.45 29.0667 61.45 30C61.45 32.3 61.6833 35.6833 62.15 40.15C62.6167 44.6167 63.0667 47.2 63.5 47.9C63.9 48.5333 64.4833 49.0167 65.25 49.35C66.05 49.6833 66.8833 49.85 67.75 49.85C69.2833 49.85 70.45 49.3667 71.25 48.4C71.55 48 71.8667 47.8 72.2 47.8C72.5 47.8 72.65 48.0333 72.65 48.5C72.65 49.1 72.4667 49.6333 72.1 50.1C71.7333 50.5333 71.2333 50.8667 70.6 51.1C69.5333 51.5667 68.3667 51.8 67.1 51.8ZM85.7039 51.5C85.0372 51.5 84.6206 51.1667 84.4539 50.5L83.8539 48.3C82.9206 45.2 82.2372 42.5833 81.8039 40.45C81.5372 39.2833 81.2039 37.6667 80.8039 35.6C80.3372 33.2 79.9039 31.25 79.5039 29.75L79.0039 30.05L78.3539 30.35L78.4539 49.6V50.35C78.4539 51.0167 78.1539 51.35 77.5539 51.35C77.2872 51.35 77.0706 51.2667 76.9039 51.1C76.7372 50.9333 76.6539 50.7333 76.6539 50.5V49.75L76.7539 39.65L76.8539 34.8C76.9872 28.9667 77.0539 24 77.0539 19.9V13.45C77.0539 13.15 77.3539 13 77.9539 13C78.8206 13 79.6206 13.2333 80.3539 13.7C81.1206 14.1667 81.7206 14.8 82.1539 15.6C83.0539 17.2333 83.5039 19.0167 83.5039 20.95C83.5039 22.4833 83.1706 24.15 82.5039 25.95C82.3039 26.45 82.0539 27.0333 81.7539 27.7C81.4539 28.3333 81.1872 28.7667 80.9539 29C81.6539 31.5667 82.6706 35.5167 84.0039 40.85L86.3539 49.85C86.3872 49.95 86.4039 50.1333 86.4039 50.4C86.4039 50.7 86.3372 50.95 86.2039 51.15C86.1039 51.3833 85.9372 51.5 85.7039 51.5ZM78.3039 28.7C78.5706 28.7 79.0206 28.3833 79.6539 27.75C80.2872 27.1167 80.7372 26.5833 81.0039 26.15C81.2372 25.6833 81.4372 24.9833 81.6039 24.05C81.7706 23.1167 81.8539 22.2833 81.8539 21.55C81.8539 20.1833 81.6206 18.7833 81.1539 17.35C80.9206 16.5167 80.5706 15.85 80.1039 15.35C79.6372 14.8167 79.1206 14.55 78.5539 14.55H78.4539C78.4206 14.5833 78.3706 14.6 78.3039 14.6V28.7ZM94.1141 51.6C93.9141 51.6 93.7474 51.4667 93.6141 51.2C93.4807 50.9667 93.4141 50.7 93.4141 50.4C93.4141 49.3333 93.4641 47.7333 93.5641 45.6L93.6641 40.75C93.6641 40.2833 93.6141 39.6 93.5141 38.7C93.3807 37.9 93.3141 37.2333 93.3141 36.7C93.3141 36.1333 93.2141 35.35 93.0141 34.35C92.8141 33.2833 92.7141 32.5167 92.7141 32.05C92.7141 31.65 92.5474 30.7 92.2141 29.2C92.1141 28.9 92.0474 28.6667 92.0141 28.5C91.9807 28.3 91.9474 28.1667 91.9141 28.1C91.7807 27.1667 91.5641 26.0167 91.2641 24.65C90.6974 21.55 90.1474 19.1 89.6141 17.3C89.1141 15.7 88.8641 14.6167 88.8641 14.05C88.8641 13.8167 88.9641 13.6333 89.1641 13.5C89.3641 13.3333 89.5974 13.25 89.8641 13.25L90.4641 13.65C90.5641 15.15 91.0141 17.8333 91.8141 21.7C92.6141 25.5333 93.2141 27.7333 93.6141 28.3C93.6807 28.1333 93.8474 26.6833 94.1141 23.95C94.3474 21.5167 94.6807 19.1 95.1141 16.7C95.5141 14.5 95.9974 13.4 96.5641 13.4C96.7307 13.4 96.8641 13.4167 96.9641 13.45C97.0641 13.45 97.1474 13.4833 97.2141 13.55C97.2807 13.6167 97.3141 13.75 97.3141 13.95C97.3141 14.25 97.2474 14.6 97.1141 15L96.9141 16L95.6141 23.45C95.4474 24.4167 95.2974 25.6167 95.1641 27.05C95.0307 28.45 94.9641 29.6833 94.9641 30.75C94.9641 31.05 94.9807 31.3167 95.0141 31.55C95.0474 31.8167 95.0641 32.1 95.0641 32.4L94.7641 33.15V33.55L94.8641 35.5L94.9641 36.55C95.0641 37.8833 95.1141 38.8833 95.1141 39.55C95.1141 44.8167 95.0807 48.1833 95.0141 49.65L95.1641 49.8C95.1641 49.8667 95.1807 49.9167 95.2141 49.95V50.15C95.2141 50.55 95.1141 50.8833 94.9141 51.15C94.7474 51.45 94.4807 51.6 94.1141 51.6ZM104.662 51.3C104.262 51.3 104.062 50.7167 104.062 49.55C104.062 47.8833 104.045 46.4 104.012 45.1L103.912 40.6V36.55C103.878 35.35 103.862 34 103.862 32.5C103.862 28.0333 103.778 23.9 103.612 20.1L103.562 18.3C103.462 16.3333 103.412 14.7333 103.412 13.5L103.562 13.3C103.595 13.2333 103.662 13.15 103.762 13.05C103.795 12.95 103.878 12.8833 104.012 12.85C104.078 12.8167 104.195 12.8 104.362 12.8C105.528 12.8 106.578 13.0667 107.512 13.6C108.478 14.1333 109.262 14.8667 109.862 15.8C111.028 17.6333 111.612 19.7167 111.612 22.05C111.612 23.55 111.362 25.0833 110.862 26.65C110.395 28.2167 109.678 29.6333 108.712 30.9C107.712 32.2667 106.595 33.0667 105.362 33.3L105.462 38.85L105.562 41.55C105.695 44.75 105.762 47.4833 105.762 49.75C105.762 50.2833 105.678 50.6833 105.512 50.95C105.378 51.1833 105.095 51.3 104.662 51.3ZM105.362 31.45C105.662 31.4167 105.962 31.2833 106.262 31.05C106.328 31.0167 106.445 30.8833 106.612 30.65C106.612 30.65 106.728 30.5333 106.962 30.3C109.128 28.1333 110.212 25.4167 110.212 22.15C110.212 20.2833 109.845 18.55 109.112 16.95C108.712 16.1167 108.128 15.4667 107.362 15C106.595 14.5 105.695 14.25 104.662 14.25C104.662 16.15 104.762 19 104.962 22.8C105.162 26.6 105.262 29.45 105.262 31.35L105.362 31.45ZM122.33 51.3C121.997 51.3 121.747 51.1833 121.58 50.95C121.413 50.6833 121.33 50.3667 121.33 50V45.55V41.1L121.23 33.1C121.13 29.5333 121.08 26.8667 121.08 25.1L121.13 23.65V20.4C121.13 16.8 121.097 15 121.03 15H115.38C115.113 15 114.863 14.9333 114.63 14.8C114.43 14.6667 114.33 14.4833 114.33 14.25C114.33 13.9833 114.38 13.8 114.48 13.7C114.58 13.6 114.847 13.5167 115.28 13.45C115.747 13.35 116.413 13.3 117.28 13.3H122.28L127.78 13.25C128.18 13.25 128.447 13.3167 128.58 13.45C128.747 13.5833 128.83 13.8 128.83 14.1C128.83 14.6 128.513 14.85 127.88 14.85H125.63H123.43L122.98 14.9L123.03 17.8V21.7V42V46.15L123.08 49.85V49.95C123.08 50.2167 123.063 50.45 123.03 50.65C122.997 50.8167 122.93 50.95 122.83 51.05C122.73 51.2167 122.563 51.3 122.33 51.3ZM147.392 51.95C143.492 51.95 141.542 45.8167 141.542 33.55V31.8C141.542 22.5 142.742 17.85 145.142 17.85C145.308 17.85 145.542 17.9 145.842 18C146.908 18.3667 147.958 18.6 148.992 18.7C149.625 18.8333 150.258 19.4833 150.892 20.65C151.592 21.85 152.108 23.4333 152.442 25.4C152.808 27.3667 152.992 29.3833 152.992 31.45L152.892 31.7C152.892 32.8 152.908 33.7833 152.942 34.65L152.992 37.65C152.992 39.35 152.925 40.8833 152.792 42.25C152.592 44.3167 152.258 46.1 151.792 47.6C151.492 48.5 151.142 49.25 150.742 49.85C150.375 50.45 149.908 50.95 149.342 51.35C148.808 51.75 148.158 51.95 147.392 51.95ZM147.192 50.5C148.492 50.5 149.458 49.5833 150.092 47.75C150.725 45.8833 151.108 43.9833 151.242 42.05C151.375 40.05 151.442 38.45 151.442 37.25C151.442 35.9167 151.342 33.95 151.142 31.35C150.975 28.45 150.892 26.4833 150.892 25.45L150.692 25.05L150.792 24.8C150.792 23.3333 150.375 22.0667 149.542 21C148.742 19.9333 147.758 19.4 146.592 19.4C145.058 19.4 144.142 20.1333 143.842 21.6C143.775 22.1 143.708 22.8167 143.642 23.75C143.642 26.2167 143.542 27.9 143.342 28.8C143.342 29.3 143.292 30.0833 143.192 31.15L143.092 33.5C143.092 34.2333 143.108 34.8833 143.142 35.45L143.192 37.45C143.192 39.0167 143.325 40.8167 143.592 42.85C143.792 44.35 144.025 45.6167 144.292 46.65C144.558 47.6833 144.942 48.5667 145.442 49.3C145.942 50.1 146.525 50.5 147.192 50.5ZM159.527 50.95C159.86 47.9167 160.027 43.8667 160.027 38.8C160.027 36.5667 160.127 33.2 160.327 28.7C160.56 24.5333 160.677 21.1833 160.677 18.65C160.677 18.35 160.81 18.1167 161.077 17.95C161.377 17.7833 161.71 17.7 162.077 17.7C163.244 17.7 164.527 17.8333 165.927 18.1C167.327 18.3667 168.027 18.7167 168.027 19.15C168.027 19.7167 167.444 20 166.277 20C165.544 19.6667 164.61 19.5 163.477 19.5L162.877 19.55C162.777 19.5833 162.694 19.6333 162.627 19.7C162.594 19.7667 162.56 19.8667 162.527 20C162.46 20.2667 162.394 20.45 162.327 20.55C162.327 22.05 162.26 23.8167 162.127 25.85C161.96 27.8167 161.877 29.5667 161.877 31.1V32.85C161.877 32.9833 162.144 33.0333 162.677 33C164.377 33 165.227 33.2667 165.227 33.8C165.227 34.0667 165.094 34.3 164.827 34.5C164.594 34.6667 164.327 34.75 164.027 34.75C163.827 34.75 163.544 34.7 163.177 34.6C162.844 34.5 162.56 34.45 162.327 34.45C161.727 34.45 161.427 35.2667 161.427 36.9V42.55C161.427 43.35 161.477 44.5333 161.577 46.1C161.677 47.7 161.727 48.9 161.727 49.7C161.727 51.0333 161.327 51.7 160.527 51.7L159.527 50.95ZM188.145 51.8C187.212 51.8 186.228 51.4333 185.195 50.7C184.162 49.9667 183.428 49.1333 182.995 48.2C182.595 47.3333 182.178 44.5833 181.745 39.95C181.345 35.3167 181.145 31.8667 181.145 29.6V26.95C181.112 26.1833 181.095 25.3333 181.095 24.4C181.095 22.6667 181.195 20.95 181.395 19.25C181.528 18.4167 181.695 17.7 181.895 17.1C182.128 16.5 182.445 15.9167 182.845 15.35C183.578 14.2167 184.678 13.4667 186.145 13.1C186.912 12.9 187.762 12.8 188.695 12.8C189.328 12.8 189.962 12.9833 190.595 13.35C191.262 13.7167 191.595 14.15 191.595 14.65C191.595 15.0167 191.328 15.2 190.795 15.2C190.595 15.2 190.212 15.0833 189.645 14.85C189.145 14.6167 188.695 14.5 188.295 14.5C187.362 14.5 186.512 14.7 185.745 15.1C185.012 15.4667 184.428 15.9667 183.995 16.6C183.628 17.1333 183.312 17.8667 183.045 18.8C182.778 19.7333 182.612 20.6667 182.545 21.6C182.445 22.4333 182.395 23.4333 182.395 24.6L182.445 27.4C182.478 28.2 182.495 29.0667 182.495 30C182.495 32.3 182.728 35.6833 183.195 40.15C183.662 44.6167 184.112 47.2 184.545 47.9C184.945 48.5333 185.528 49.0167 186.295 49.35C187.095 49.6833 187.928 49.85 188.795 49.85C190.328 49.85 191.495 49.3667 192.295 48.4C192.595 48 192.912 47.8 193.245 47.8C193.545 47.8 193.695 48.0333 193.695 48.5C193.695 49.1 193.512 49.6333 193.145 50.1C192.778 50.5333 192.278 50.8667 191.645 51.1C190.578 51.5667 189.412 51.8 188.145 51.8ZM204.899 51.95C204.132 51.95 203.415 51.7833 202.749 51.45C202.082 51.1167 201.532 50.6833 201.099 50.15C200.665 49.65 200.282 49.0333 199.949 48.3C199.615 47.5667 199.349 46.8333 199.149 46.1C198.815 44.9667 198.565 43.55 198.399 41.85L198.299 40.3C198.299 39.9667 198.282 39.75 198.249 39.65C198.249 39.55 198.249 39.4833 198.249 39.45C198.082 37.8167 197.865 34.2167 197.599 28.65C197.365 23.0833 197.249 18.75 197.249 15.65V15.3V14.9C197.249 14.0333 197.499 13.6 197.999 13.6C198.699 13.6 199.049 14 199.049 14.8V15.15L198.999 15.55C198.999 19.4167 199.115 24 199.349 29.3C199.582 34.5667 199.815 38.3667 200.049 40.7C200.215 42.1667 200.499 43.6667 200.899 45.2C201.165 46.2333 201.449 47.1 201.749 47.8C202.082 48.5 202.499 49.0833 202.999 49.55C203.599 50.0833 204.182 50.35 204.749 50.35C205.315 50.35 205.815 50.2167 206.249 49.95C206.715 49.6833 207.065 49.3333 207.299 48.9C207.532 48.5333 207.715 48.0667 207.849 47.5C208.015 46.9 208.115 46.3333 208.149 45.8C208.182 45.4667 208.199 44.9167 208.199 44.15V38.45C208.199 35.9167 208.132 32.8 207.999 29.1L207.799 22.7L207.699 18.45C207.599 16.5833 207.549 15.1667 207.549 14.2C207.549 13.8333 207.649 13.55 207.849 13.35C208.049 13.15 208.282 13.05 208.549 13.05C208.815 13.05 209.032 13.15 209.199 13.35C209.399 13.55 209.499 13.8333 209.499 14.2V18C209.499 19.6667 209.515 21.1667 209.549 22.5V27C209.549 30.2333 209.582 33.0667 209.649 35.5C209.682 37.9667 209.699 40.7333 209.699 43.8C209.699 44.6333 209.665 45.3667 209.599 46C209.532 46.6333 209.399 47.3 209.199 48C208.999 48.8 208.715 49.4833 208.349 50.05C208.015 50.5833 207.565 51.0333 206.999 51.4C206.365 51.7667 205.665 51.95 204.899 51.95ZM225.352 51.5C224.686 51.5 224.269 51.1667 224.102 50.5L223.502 48.3C222.569 45.2 221.886 42.5833 221.452 40.45C221.186 39.2833 220.852 37.6667 220.452 35.6C219.986 33.2 219.552 31.25 219.152 29.75L218.652 30.05L218.002 30.35L218.102 49.6V50.35C218.102 51.0167 217.802 51.35 217.202 51.35C216.936 51.35 216.719 51.2667 216.552 51.1C216.386 50.9333 216.302 50.7333 216.302 50.5V49.75L216.402 39.65L216.502 34.8C216.636 28.9667 216.702 24 216.702 19.9V13.45C216.702 13.15 217.002 13 217.602 13C218.469 13 219.269 13.2333 220.002 13.7C220.769 14.1667 221.369 14.8 221.802 15.6C222.702 17.2333 223.152 19.0167 223.152 20.95C223.152 22.4833 222.819 24.15 222.152 25.95C221.952 26.45 221.702 27.0333 221.402 27.7C221.102 28.3333 220.836 28.7667 220.602 29C221.302 31.5667 222.319 35.5167 223.652 40.85L226.002 49.85C226.036 49.95 226.052 50.1333 226.052 50.4C226.052 50.7 225.986 50.95 225.852 51.15C225.752 51.3833 225.586 51.5 225.352 51.5ZM217.952 28.7C218.219 28.7 218.669 28.3833 219.302 27.75C219.936 27.1167 220.386 26.5833 220.652 26.15C220.886 25.6833 221.086 24.9833 221.252 24.05C221.419 23.1167 221.502 22.2833 221.502 21.55C221.502 20.1833 221.269 18.7833 220.802 17.35C220.569 16.5167 220.219 15.85 219.752 15.35C219.286 14.8167 218.769 14.55 218.202 14.55H218.102C218.069 14.5833 218.019 14.6 217.952 14.6V28.7ZM239.513 51.5C238.846 51.5 238.429 51.1667 238.263 50.5L237.663 48.3C236.729 45.2 236.046 42.5833 235.613 40.45C235.346 39.2833 235.013 37.6667 234.613 35.6C234.146 33.2 233.713 31.25 233.313 29.75L232.813 30.05L232.163 30.35L232.263 49.6V50.35C232.263 51.0167 231.963 51.35 231.363 51.35C231.096 51.35 230.879 51.2667 230.713 51.1C230.546 50.9333 230.463 50.7333 230.463 50.5V49.75L230.563 39.65L230.663 34.8C230.796 28.9667 230.863 24 230.863 19.9V13.45C230.863 13.15 231.163 13 231.763 13C232.629 13 233.429 13.2333 234.163 13.7C234.929 14.1667 235.529 14.8 235.963 15.6C236.863 17.2333 237.313 19.0167 237.313 20.95C237.313 22.4833 236.979 24.15 236.313 25.95C236.113 26.45 235.863 27.0333 235.563 27.7C235.263 28.3333 234.996 28.7667 234.763 29C235.463 31.5667 236.479 35.5167 237.813 40.85L240.162 49.85C240.196 49.95 240.213 50.1333 240.213 50.4C240.213 50.7 240.146 50.95 240.013 51.15C239.913 51.3833 239.746 51.5 239.513 51.5ZM232.113 28.7C232.379 28.7 232.829 28.3833 233.463 27.75C234.096 27.1167 234.546 26.5833 234.813 26.15C235.046 25.6833 235.246 24.9833 235.413 24.05C235.579 23.1167 235.663 22.2833 235.663 21.55C235.663 20.1833 235.429 18.7833 234.963 17.35C234.729 16.5167 234.379 15.85 233.912 15.35C233.446 14.8167 232.929 14.55 232.363 14.55H232.263C232.229 14.5833 232.179 14.6 232.113 14.6V28.7ZM247.173 51.3C246.373 51.3 245.806 51.2167 245.473 51.05C245.173 50.9167 245.023 50.6333 245.023 50.2V49.25C244.989 48.9833 244.973 48.6833 244.973 48.35V48.25L245.023 40.95L244.973 20.3C244.973 18.1667 244.939 16.3167 244.873 14.75C244.873 14.35 244.956 14.0167 245.123 13.75C245.289 13.4833 245.506 13.35 245.773 13.35H248.873C249.339 13.35 249.689 13.3833 249.923 13.45C250.256 13.55 250.423 13.8333 250.423 14.3C250.423 14.5667 250.323 14.7833 250.123 14.95C249.923 15.1167 249.706 15.2167 249.473 15.25H248.623L247.823 15.2L247.023 15.15C246.789 15.15 246.623 15.2 246.523 15.3C246.456 15.3667 246.423 15.5167 246.423 15.75C246.423 17.3167 246.439 18.7333 246.473 20V24.25V30.5C246.473 30.5667 246.506 30.6 246.573 30.6H246.623H246.673C247.506 30.5333 248.406 30.5 249.373 30.5C249.906 30.5 250.173 30.7333 250.173 31.2C250.173 31.5333 250.106 31.7667 249.973 31.9C249.873 32 249.689 32.05 249.423 32.05H246.573C246.439 32.05 246.373 32.1333 246.373 32.3L246.473 39.7C246.539 42 246.573 44.65 246.573 47.65V49.5H248.723H250.823H251.273C251.873 49.5 252.173 49.7167 252.173 50.15C252.173 50.6833 252.023 51 251.723 51.1C251.323 51.2333 250.506 51.3 249.273 51.3H247.173ZM267.524 51.55C267.29 51.55 267.074 51.4333 266.874 51.2C266.674 50.9667 266.54 50.7 266.474 50.4L266.324 49.45C266.224 49.05 266.174 48.8 266.174 48.7C262.44 35.3333 260.39 27.8333 260.024 26.2C259.724 25 259.04 21.6667 257.974 16.2C257.94 16.4 257.924 17.0833 257.924 18.25V36.35L258.024 43.5L258.124 50.6L257.824 51H256.674L256.524 50.6C256.59 50.2667 256.624 49.6 256.624 48.6L256.574 39.9L256.474 31.2V24.65V19.9C256.44 18.5 256.424 16.9333 256.424 15.2C256.424 15 256.407 14.8167 256.374 14.65V14.15C256.374 13.75 256.474 13.4833 256.674 13.35C256.907 13.1833 257.257 13.1 257.724 13.1C257.924 13.1 258.14 13.2 258.374 13.4C258.64 13.6 258.807 13.8167 258.874 14.05L259.924 18.95C260.39 21.2833 260.79 23.05 261.124 24.25C261.824 27.0167 263.024 31.55 264.724 37.85C265.69 41.9833 266.557 45.15 267.324 47.35C267.524 46.85 267.624 46.05 267.624 44.95C267.624 41.7167 267.657 38.8167 267.724 36.25L267.824 27.55C267.824 26.1167 267.84 24.8167 267.874 23.65V19.8L267.824 12.75C267.99 12.2833 268.34 12.05 268.874 12.05C269.14 12.05 269.274 12.5333 269.274 13.5C269.274 13.9333 269.257 14.2833 269.224 14.55C269.224 14.8167 269.207 15.0167 269.174 15.15C269.174 15.25 269.174 15.3167 269.174 15.35V18.55C269.174 22.9833 269.157 26.9333 269.124 30.4C269.09 33.9 269.074 37.8333 269.074 42.2C269.074 43.0333 269.024 44.35 268.924 46.15L268.824 50.1C268.824 51.0667 268.39 51.55 267.524 51.55ZM283.018 51.8C282.085 51.8 281.101 51.4333 280.068 50.7C279.035 49.9667 278.301 49.1333 277.868 48.2C277.468 47.3333 277.051 44.5833 276.618 39.95C276.218 35.3167 276.018 31.8667 276.018 29.6V26.95C275.985 26.1833 275.968 25.3333 275.968 24.4C275.968 22.6667 276.068 20.95 276.268 19.25C276.401 18.4167 276.568 17.7 276.768 17.1C277.001 16.5 277.318 15.9167 277.718 15.35C278.451 14.2167 279.551 13.4667 281.018 13.1C281.785 12.9 282.635 12.8 283.568 12.8C284.201 12.8 284.835 12.9833 285.468 13.35C286.135 13.7167 286.468 14.15 286.468 14.65C286.468 15.0167 286.201 15.2 285.668 15.2C285.468 15.2 285.085 15.0833 284.518 14.85C284.018 14.6167 283.568 14.5 283.168 14.5C282.235 14.5 281.385 14.7 280.618 15.1C279.885 15.4667 279.301 15.9667 278.868 16.6C278.501 17.1333 278.185 17.8667 277.918 18.8C277.651 19.7333 277.485 20.6667 277.418 21.6C277.318 22.4333 277.268 23.4333 277.268 24.6L277.318 27.4C277.351 28.2 277.368 29.0667 277.368 30C277.368 32.3 277.601 35.6833 278.068 40.15C278.535 44.6167 278.985 47.2 279.418 47.9C279.818 48.5333 280.401 49.0167 281.168 49.35C281.968 49.6833 282.801 49.85 283.668 49.85C285.201 49.85 286.368 49.3667 287.168 48.4C287.468 48 287.785 47.8 288.118 47.8C288.418 47.8 288.568 48.0333 288.568 48.5C288.568 49.1 288.385 49.6333 288.018 50.1C287.651 50.5333 287.151 50.8667 286.518 51.1C285.451 51.5667 284.285 51.8 283.018 51.8ZM295.872 51.6C295.672 51.6 295.505 51.4667 295.372 51.2C295.239 50.9667 295.172 50.7 295.172 50.4C295.172 49.3333 295.222 47.7333 295.322 45.6L295.422 40.75C295.422 40.2833 295.372 39.6 295.272 38.7C295.139 37.9 295.072 37.2333 295.072 36.7C295.072 36.1333 294.972 35.35 294.772 34.35C294.572 33.2833 294.472 32.5167 294.472 32.05C294.472 31.65 294.305 30.7 293.972 29.2C293.872 28.9 293.805 28.6667 293.772 28.5C293.739 28.3 293.705 28.1667 293.672 28.1C293.539 27.1667 293.322 26.0167 293.022 24.65C292.455 21.55 291.905 19.1 291.372 17.3C290.872 15.7 290.622 14.6167 290.622 14.05C290.622 13.8167 290.722 13.6333 290.922 13.5C291.122 13.3333 291.355 13.25 291.622 13.25L292.222 13.65C292.322 15.15 292.772 17.8333 293.572 21.7C294.372 25.5333 294.972 27.7333 295.372 28.3C295.439 28.1333 295.605 26.6833 295.872 23.95C296.105 21.5167 296.439 19.1 296.872 16.7C297.272 14.5 297.755 13.4 298.322 13.4C298.489 13.4 298.622 13.4167 298.722 13.45C298.822 13.45 298.905 13.4833 298.972 13.55C299.039 13.6167 299.072 13.75 299.072 13.95C299.072 14.25 299.005 14.6 298.872 15L298.672 16L297.372 23.45C297.205 24.4167 297.055 25.6167 296.922 27.05C296.789 28.45 296.722 29.6833 296.722 30.75C296.722 31.05 296.739 31.3167 296.772 31.55C296.805 31.8167 296.822 32.1 296.822 32.4L296.522 33.15V33.55L296.622 35.5L296.722 36.55C296.822 37.8833 296.872 38.8833 296.872 39.55C296.872 44.8167 296.839 48.1833 296.772 49.65L296.922 49.8C296.922 49.8667 296.939 49.9167 296.972 49.95V50.15C296.972 50.55 296.872 50.8833 296.672 51.15C296.505 51.45 296.239 51.6 295.872 51.6Z" fill="#1AD475"/>
<path d="M47 30H3C1.89543 30 1 30.8954 1 32V37C1 38.1046 1.89543 39 3 39H47" stroke="#FF1494"/>
<path d="M312 39L355 39C356.105 39 357 38.1046 357 37V32C357 30.8954 356.105 30 355 30L312 30" stroke="#FF1494"/>
</svg>
